# Blender v2.79 (sub 0) OBJ File: ''
# www.blender.org
mtllib Hexa.mtl
o Cube_Cube.001
v -1.045598 -0.175384 1.848928
v -1.045598 0.387799 1.848928
v 0.954402 -0.175384 1.848928
v 0.954402 0.387799 1.848928
v -0.045598 -0.175384 2.476654
v -0.045598 0.387799 2.476654
v -1.045598 -0.175384 0.531772
v -1.045598 0.387799 0.531772
v -1.045598 -0.175384 1.190350
v -1.045598 0.387799 1.190350
v 0.954402 -0.175384 0.531772
v 0.954402 0.387799 0.531772
v 0.954402 -0.175384 1.190350
v 0.954402 0.387799 1.190350
v -0.045598 -0.175384 1.190350
v -0.045598 0.387799 1.190350
v -0.045598 -0.175384 -0.095954
v -0.045598 0.387799 -0.095954
vn -1.0000 0.0000 0.0000
vn 1.0000 0.0000 0.0000
vn -0.5317 0.0000 0.8470
vn 0.0000 -1.0000 0.0000
vn 0.0000 1.0000 0.0000
vn 0.5317 0.0000 0.8470
vn 0.0000 0.0000 1.0000
vn -0.5317 0.0000 -0.8470
vn 0.5317 0.0000 -0.8470
usemtl None
s off
f 1//1 2//1 10//1 9//1
f 13//2 14//2 4//2 3//2
f 5//3 6//3 2//3 1//3
f 15//4 13//4 3//4 5//4
f 16//5 10//5 2//5 6//5
f 14//5 16//5 6//5 4//5
f 9//4 15//4 5//4 1//4
f 3//6 4//6 6//6 5//6
f 7//1 9//1 10//1 8//1
f 15//7 13//7 14//7 16//7
f 13//2 11//2 12//2 14//2
f 17//8 7//8 8//8 18//8
f 15//4 17//4 11//4 13//4
f 16//5 18//5 8//5 10//5
f 14//5 12//5 18//5 16//5
f 9//4 7//4 17//4 15//4
f 11//9 17//9 18//9 12//9
f 9//7 15//7 16//7 10//7
